<svg xmlns="http://www.w3.org/2000/svg" width="100" height="100" viewBox="0 0 100 100">
    <defs>
        <linearGradient id="linear-gradient" x1=".5" x2=".5" y2="1" gradientUnits="objectBoundingBox">
            <stop offset="0" stop-color="#006837"/>
            <stop offset="1" stop-color="#009245"/>
        </linearGradient>
        <clipPath id="clipPath">
            <path id="Rectangle_1748" fill="#fff" stroke="#707070" d="M0 0H100V100H0z" transform="translate(1025 3368.029)"/>
        </clipPath>
        <style>
            .cls-4{fill:#8cc63f}.cls-5{fill:url(#linear-gradient)}
        </style>
    </defs>
    <g id="AI_icon" transform="translate(-1025 -3368.029)">
        <g id="Mask_Group_9" clipPath="url(#clipPath)">
            <g id="Group_1321" opacity="0.43" transform="translate(1027.432 3372.704)">
                <path id="Path_9468" d="M1045.541 3383.062c-13.94-.479-22.43 17.079-13.426 29.027-8.937 11.861-.622 29.51 13.426 29.027 1.2 8.6 7.364 15.353 14.834 15.353 8.307 0 15.064-8.274 15.064-18.446v-51.87c0-7.86-4.042-14.569-9.71-17.221-9.078-4.232-18.636 2.945-20.188 14.13zm25.467 3.092v24.55h-17.944a3.843 3.843 0 1 0 0 2.77h17.944v20.511h-6.533a3.843 3.843 0 1 0 0 2.771h6.533v1.268c0 7.727-4.77 14.014-10.633 14.014-4.808 0-8.862-4.239-10.171-10.023v-17.6h7.905a3.848 3.848 0 1 0 0-2.77h-10.676v14.819c-7.806 1.579-14.586-5.009-14.586-13.195a13.892 13.892 0 0 1 5.486-11.175 13.65 13.65 0 0 1-5.153-8.107h5.62v19.309a3.843 3.843 0 1 0 2.77 0v-19.309h19.19a3.843 3.843 0 1 0 4.967-4.965v-24.951c3.154 2.429 5.281 6.929 5.281 12.082zm-8.048 1.243v11.62a3.844 3.844 0 0 0-2.2 2.2h-6.436v-3.5a3.843 3.843 0 1 0-2.77 0v3.5h-18.7c-.212-9.852 8.994-16.385 17.045-12.7-1.26-9.822 5.5-18.43 13.054-15.935z" class="cls-4" transform="translate(-1028.401 -3367.704)"/>
                <path id="Path_9469" d="M1125.557 3441.122c14.542.331 22.121-17.489 13.426-29.028a18.537 18.537 0 0 0 3.7-11.175c0-9.9-7.626-18.1-17.123-17.852a21.117 21.117 0 0 0-1.894-6.289c-7.833-16.184-28.005-9.188-28.005 9.381v51.869c0 10.688 7.234 18.446 15.064 18.446 7.441.001 13.624-6.652 14.832-15.352zm-25.468-3.093v-24.549h17.944a3.844 3.844 0 1 0 0-2.77h-17.944v-20.51h6.534a3.843 3.843 0 1 0 0-2.77h-6.534v-1.268c0-7.727 4.771-14.014 10.633-14.014 4.809 0 8.863 4.238 10.171 10.023v17.6h-7.9a3.843 3.843 0 1 0 0 2.77h10.675v-14.82c7.835-1.585 14.586 5.041 14.586 13.195a13.885 13.885 0 0 1-5.485 11.175 13.642 13.642 0 0 1 5.152 8.107h-5.621v-19.309a3.848 3.848 0 1 0-2.771 0v19.311h-19.191a3.842 3.842 0 1 0-4.966 4.966v24.949c-3.155-2.433-5.283-6.933-5.283-12.086zm8.051-12.862a3.845 3.845 0 0 0 2.2-2.2h6.437v3.5a3.843 3.843 0 1 0 2.769 0v-3.5h18.7c.213 9.858-8.991 16.379-17.045 12.7 1.275 9.933-5.589 18.41-13.052 15.934z" class="cls-4" transform="translate(-1045.112 -3367.71)"/>
            </g>
            <g id="Group_1322" transform="translate(1024.5 3374.773)">
                <path id="Path_9470" d="M1041.64 3385.815c-13.94-.48-22.43 17.079-13.425 29.027-8.937 11.861-.622 29.51 13.425 29.026 1.2 8.6 7.364 15.354 14.835 15.354 8.307 0 15.064-8.275 15.064-18.447v-51.869c0-7.859-4.042-14.569-9.71-17.221-9.078-4.229-18.637 2.946-20.189 14.13zm25.467 3.092v24.55h-17.944a3.843 3.843 0 1 0 0 2.77h17.944v20.511h-6.534a3.843 3.843 0 1 0 0 2.771h6.534v1.268c0 7.728-4.77 14.015-10.633 14.015-4.808 0-8.863-4.239-10.171-10.023v-17.605h7.9a3.847 3.847 0 1 0 0-2.771h-10.676v14.82c-7.8 1.58-14.586-5.008-14.586-13.194a13.889 13.889 0 0 1 5.486-11.175 13.653 13.653 0 0 1-5.152-8.107h5.621v19.309a3.843 3.843 0 1 0 2.769 0v-19.309h19.191a3.843 3.843 0 1 0 4.967-4.965v-24.95c3.157 2.432 5.285 6.933 5.285 12.085zm-8.049 1.242v11.621a3.849 3.849 0 0 0-2.2 2.195h-6.436v-3.5a3.843 3.843 0 1 0-2.77 0v3.5h-18.7c-.212-9.852 8.995-16.384 17.045-12.7-1.259-9.823 5.5-18.431 13.054-15.935z" class="cls-5" transform="translate(-1024.5 -3370.457)"/>
                <path id="Path_9471" d="M1121.656 3443.875c14.543.332 22.121-17.489 13.425-29.027a18.536 18.536 0 0 0 3.7-11.175c0-9.9-7.626-18.094-17.123-17.852a21.111 21.111 0 0 0-1.894-6.288c-7.833-16.184-28.005-9.189-28.005 9.382v51.868c0 10.688 7.234 18.447 15.064 18.447 7.442-.001 13.625-6.654 14.833-15.355zm-25.467-3.093v-24.549h17.944a3.844 3.844 0 1 0 0-2.77h-17.944v-20.512h6.534a3.843 3.843 0 1 0 0-2.769h-6.534v-1.268c0-7.728 4.77-14.015 10.632-14.015 4.81 0 8.863 4.239 10.171 10.024v17.6h-7.9a3.844 3.844 0 1 0 0 2.77h10.674v-14.82c7.835-1.586 14.586 5.041 14.586 13.194a13.885 13.885 0 0 1-5.485 11.175 13.646 13.646 0 0 1 5.152 8.107h-5.619v-19.309a3.848 3.848 0 1 0-2.771 0v19.309h-19.191a3.842 3.842 0 1 0-4.966 4.965v24.95c-3.156-2.428-5.283-6.928-5.283-12.082zm8.05-12.862a3.844 3.844 0 0 0 2.2-2.2h6.437v3.5a3.843 3.843 0 1 0 2.77 0v-3.5h18.7c.213 9.858-8.991 16.378-17.045 12.7 1.275 9.933-5.589 18.411-13.053 15.934z" class="cls-5" transform="translate(-1041.211 -3370.464)"/>
            </g>
        </g>
    </g>
</svg>
