<svg xmlns="http://www.w3.org/2000/svg" width="100" height="100" viewBox="0 0 100 100">
    <defs>
        <clipPath id="yy9jh4ymwa">
            <path fill="#fff" stroke="#707070" d="M0 0H100V100H0z" transform="translate(208 2632)"/>
        </clipPath>
    </defs>
    <g>
        <g clipPath="url(#yy9jh4ymwa)" transform="translate(-208 -2632)">
            <path fill="#6daf50" d="M252.348 3362.645a46.476 46.476 0 0 0-16.675 89.872 2.862 2.862 0 0 0 2.3-.1 2.918 2.918 0 0 0 1.506-1.751l8.721-27.85a2.9 2.9 0 0 0-1.366-3.413 11.623 11.623 0 1 1 11.024.006 2.9 2.9 0 0 0-1.367 3.413l8.722 27.851a2.916 2.916 0 0 0 1.505 1.75 2.951 2.951 0 0 0 1.268.291 2.872 2.872 0 0 0 1.035-.192 46.479 46.479 0 0 0-16.676-89.878z" opacity="0.54" transform="translate(2 -727.029)"/>
            <path fill="#4caf50" d="M262.015 3366.645a46.476 46.476 0 0 0-16.676 89.872 2.864 2.864 0 0 0 2.3-.1 2.92 2.92 0 0 0 1.506-1.751l8.721-27.85a2.9 2.9 0 0 0-1.367-3.413 11.624 11.624 0 1 1 11.024.006 2.9 2.9 0 0 0-1.366 3.413l8.721 27.851a2.917 2.917 0 0 0 1.506 1.75 2.948 2.948 0 0 0 1.268.291 2.88 2.88 0 0 0 1.035-.192 46.479 46.479 0 0 0-16.676-89.878z" transform="translate(-0.53 -728.076)"/>
        </g>
    </g>
</svg>
